<?xml version="1.0" encoding="UTF-8"?>
<svg id="Layer_1" data-name="Layer 1" xmlns="http://www.w3.org/2000/svg" xmlns:xlink="http://www.w3.org/1999/xlink" viewBox="0 0 960 540">
  <defs>
    <style>
      .cls-1 {
        font-family: Vogue-Regular, Vogue;
        font-size: 100.75px;
      }

      .cls-1, .cls-2, .cls-3 {
        fill: #bb9b51;
      }

      .cls-2 {
        font-family: Century, Century;
        font-size: 26.19px;
      }

      .cls-4 {
        fill: #fbf9ef;
      }

      .cls-4, .cls-5, .cls-6, .cls-3, .cls-7 {
        stroke-width: 0px;
      }

      .cls-5 {
        fill: #fff;
      }

      .cls-6 {
        fill: #565656;
      }

      .cls-7 {
        opacity: .07;
      }
    </style>
  </defs>
  <rect class="cls-5" x=".93" y=".25" width="960" height="540"/>
  <rect class="cls-5" x="1.43" y="539.75" width="960" height="540"/>
  <rect class="cls-6" x="959.93" y=".25" width="960.5" height="540"/>
  <image width="3000" height="2000" transform="translate(.43 539.75) scale(.32 .27)" xlink:href="../../../background.jpg"/>
  <rect class="cls-7" x="1.43" y="539.75" width="958" height="539"/>
  <rect class="cls-3" x="15.98" y="37.15" width="85.02" height="74.3"/>
  <g>
    <path class="cls-4" d="M576.46,327.23c.28.03.53.12.67.39-.29-.02-.54-.1-.67-.39Z"/>
    <path class="cls-4" d="M577.15,327.64c.19.02.36.08.35.32-.12-.11-.23-.21-.35-.32Z"/>
    <path class="cls-4" d="M575.37,326.57c.21,0,.36.1.46.29-.21-.01-.36-.11-.46-.29Z"/>
    <path class="cls-3" d="M435.67,288.39c-.65.29-1.34.49-2.02.71-1.49.49-1.58.65-1.55,2.12.02.87.31,1.33,1.26,1.28,1.01-.05,2.02-.02,3.03-.01,15.41.09,30.83.19,46.24-.02,1.49-.02,1.45-.05,1.61-1.46.11-.98-.23-1.42-1.19-1.56-.64-.09-1.27-.32-1.88-.56-2.51-.99-4.11-2.76-4.56-5.48-.23-1.41-.42-2.82-.46-4.25-.08-3.03-.13-6.06-.11-9.1.09-14.52.12-29.05.17-43.57,0-2.14,0-4.29-.01-6.43,0-.8-.2-1.43-.93-1.98-5.31-4.02-10.59-8.09-15.88-12.15-.27-.21-.5-.54-.94-.29-.02.16-.06.34-.06.51.2,23.87-.02,47.73-.12,71.6,0,1.07-.1,2.14-.18,3.21-.02.31.09.77-.49.75-.29-.27-.26-.65-.33-.99-1.95-10.65-3.92-21.29-5.82-31.95-2.02-11.36-3.98-22.73-5.93-34.1-2.33-13.6-4.62-27.21-6.94-40.81-1.27-7.45-2.56-14.89-3.81-22.34-.82-4.87-1.62-9.74-2.37-14.62-.15-.98-.55-1.25-1.52-1.23-3.51.08-7.02.07-10.53.07-1.68,0-1.68-.02-1.98,1.69-2.53,14.35-5.03,28.71-7.61,43.05-1.82,10.13-3.46,20.29-5.48,30.38-.11.55-.35,1.14.08,1.75,1.26-.26,2.24-1.06,3.35-1.61.94-.46,1.38-1.12,1.55-2.17.88-5.22,1.92-10.42,2.77-15.64,1.54-9.51,3.18-19.01,4.95-28.48.12-.62.05-1.32.64-1.79.38.45.38,1.01.48,1.52,2.07,11.66,4.14,23.31,6.19,34.97,1.41,8.03,2.78,16.06,4.19,24.09.84,4.75,1.74,9.48,2.58,14.22.24,1.34.13,1.43-1.21,1.45-.18,0-.36,0-.54,0-7.26-.23-14.52-.21-21.78-.17-.71,0-1.43,0-2.14,0-.73.01-1.14-.25-.96-1.06.06-.29.09-.59.15-.88,1.35-6.53,2.4-13.11,3.48-19.68.07-.42.4-.9-.15-1.42-.72.27-1.48.6-2.26.85-1.76.58-2.6,1.72-2.88,3.62-.77,5.3-1.72,10.57-2.62,15.85-1.71,10.09-3.44,20.18-5.14,30.27-.75,4.46-1.58,8.9-2.64,13.29-.58,2.39-1.43,4.66-3.17,6.46-.78.8-1.61,1.55-2.66,2.03-.59.27-1.3.36-1.81.79-.29.25-.35.52-.31.89.07.6.15,1.21.22,1.81.01.12.03.24.08.35.1.24.33.3.57.3,3.81,0,7.62-.05,11.42-.08,2.57-.02,5.15-.03,7.72-.01,1.19,0,1.14-.7,1.28-1.47.15-.84.2-1.51-.9-1.74-1.52-.32-2.94-.92-4.27-1.76-1.81-1.14-2.7-2.78-2.81-4.89-.07-1.31.02-2.62.2-3.92,1.61-11.43,3.65-22.79,5.51-34.19.21-1.28.26-1.28,1.83-1.28,8.21-.02,16.43-.04,24.64-.06.36,0,.71,0,1.07,0,.56,0,.89.27.99.81.07.35.11.71.16,1.06,1.8,10.72,3.59,21.45,5.41,32.17.23,1.37.54,2.73.81,4.09.68,3.48-.48,5.74-3.7,7.16Z"/>
    <path class="cls-3" d="M475.85,212.74c-1.02-.17-1.59-.73-2.19-1.18-4.67-3.49-9.32-7.01-14-10.48-.95-.71-1.31-1.47-1.3-2.69.11-15.59.2-31.18.05-46.78-.02-1.9-.14-3.81-.29-5.7-.27-3.58-2.47-6.07-5.97-6.83-.12-.03-.24-.04-.35-.08-.48-.19-1.19.08-1.46-.47-.36-.71-.13-1.52-.08-2.28.02-.25.22-.42.48-.45.29-.04.59-.05.89-.05,11.37,0,22.73-.02,34.1.05,3.76.02,7.47.45,11.02,1.88,9.46,3.8,14.93,10.84,17,20.69.48,2.27.72,4.58.72,6.91,0,6.9.05,13.81.04,20.71,0,3.52-.45,6.99-1.3,10.42-1.81,7.35-6.23,12.57-12.83,16.07-1.69.89-3.45,1.6-5.23,2.26-.43.16-.95.16-1.3.7.34.51.95.6,1.46.8,10.68,4.2,16.75,12.12,18.82,23.27.5,2.7.6,5.44.62,8.18.04,6.19.06,12.38.08,18.57.02,4.34.12,8.69.66,13,.1.77.31,1.52.43,2.28.71,4.24,3.2,6.94,7.2,8.28.92.31,1.41.7,1.4,1.72-.01,1.36-.04,1.44-1.46,1.62-.77.1-1.54.18-2.29.34-4.57.98-8.88,0-13.04-1.81-4.18-1.82-6.71-5.17-8.25-9.37-1.44-3.95-2.29-7.99-2.31-12.21-.04-8.99-.06-17.97-.21-26.96-.07-3.92-.1-7.86-.96-11.72-.53-2.39-1.34-4.69-2.48-6.86-1.91-3.62-4.99-5.65-8.93-6.46-2.34-.48-4.74-.45-7.1-.67-1.53-.14-1.54-.13-1.56-1.7,0-.3.02-.6,0-.89-.08-.81.34-1.03,1.07-1,.83.03,1.67.02,2.5,0,1.25-.04,2.5-.12,3.74-.18,4.08-.2,7.08-2.22,9.24-5.57,2.72-4.21,4.01-8.9,4.12-13.86.27-12.38.21-24.76.05-37.13-.05-3.56-.9-6.95-2.26-10.22-1.94-4.67-5.59-6.95-10.52-7.29-2.02-.14-4.04-.1-6.07-.12-1.53-.01-1.54,0-1.55,1.61-.03,8.27-.07,16.54-.08,24.82-.01,13.87,0,27.73-.01,41.6,0,1.71.05,3.44-.31,5.24Z"/>
    <path class="cls-3" d="M524.62,206.68c3.98,2.66,7.74,5.57,11.54,8.41,1.48,1.1,2.93,2.25,4.45,3.28,1.04.7,1.42,1.54,1.41,2.81-.04,11.07-.02,22.14-.01,33.21,0,6.54-.07,13.09.27,19.63.13,2.5.46,4.97,1.13,7.39,2,7.28,8.35,9.11,13.49,8.38,5.4-.77,9.28-3.83,11.83-8.55,2.51-4.65,3.81-9.73,4.73-14.9,1.1-6.22,1.34-12.53,1.74-18.83.11-1.71,1.35-2.46,2.88-1.73.59.28.95.71,1,1.36.03.47.03.95.03,1.43.07,13.98.13,27.97.2,41.95,0,.12.03.25,0,.36-.16.6.47,1.53-.69,1.72-1.14.19-2.19-.25-2.53-1.14-.36-.95-.68-1.91-1.2-2.78-1.34-2.21-2.77-2.59-4.89-1.16-2.22,1.5-4.44,2.98-6.85,4.17-4.74,2.33-9.67,2.62-14.79,1.67-9.97-1.84-16.33-7.89-20.33-16.92-2.46-5.55-3.45-11.35-3.45-17.37-.02-13.15-.05-26.3-.09-39.45-.01-4.05.09-8.09-.13-12.14-.01-.23-.09-.47.28-.81Z"/>
    <path class="cls-3" d="M541.49,213.83c-.7.17-1.15-.28-1.61-.63-4.37-3.3-8.72-6.62-13.08-9.93-.28-.22-.53-.48-.82-.69-1.11-.79-1.49-1.83-1.48-3.22.06-9.82,0-19.64.05-29.46.03-5.31.43-10.58,2.07-15.69,2.26-7.03,6.12-12.9,12.54-16.76,5.4-3.24,11.3-4.69,17.61-3.93,3.69.44,6.93,2.05,9.92,4.2.87.63,1.69,1.32,2.55,1.95,1.78,1.31,3.27,1.07,4.55-.75.79-1.12,1.43-2.33,1.97-3.59.35-.84,1.61-1.21,2.37-.78.25.14.33.34.35.57.04.41.07.83.07,1.25.07,13.03.14,26.07.2,39.1,0,.3,0,.6-.01.89-.08,1.77-.55,2.2-2.3,2.17-1.37-.03-1.47-.12-1.58-1.54-.4-5.04-.7-10.09-1.71-15.06-1.06-5.26-2.46-10.42-4.7-15.32-2.84-6.21-8.16-9.45-14.99-9.19-3.47.13-6.17,1.66-7.97,4.64-1.87,3.1-3.02,6.44-3.26,10.09-.21,3.21-.25,6.42-.25,9.63-.03,16.43.15,32.85-.07,49.28-.01.95.03,1.9-.44,2.77Z"/>
  </g>
  <polygon class="cls-3" points="381.93 127.49 483.81 65.8 586.59 127.49 586.59 205.29 601.45 205.29 601.45 119.56 484.42 47.96 365.82 119.56 365.82 310.1 483.81 380.96 601.45 310.84 601.45 221.65 585.84 221.65 585.84 302.42 484.42 363.62 381.43 302.17 381.93 127.49"/>
  <text class="cls-1" transform="translate(262.45 457.48)"><tspan x="0" y="0">A.R. &amp; CO.</tspan></text>
  <text class="cls-2" transform="translate(287.24 491.97)"><tspan x="0" y="0">A</tspan></text>
  <text class="cls-2" transform="translate(306.16 491.97) scale(.7)"><tspan x="0" y="0">DVOCATES</tspan></text>
  <text class="cls-2" transform="translate(410.42 491.97)"><tspan x="0" y="0" xml:space="preserve"> &amp; L</tspan></text>
  <text class="cls-2" transform="translate(463.79 491.97) scale(.7)"><tspan x="0" y="0">EGAL</tspan></text>
  <text class="cls-2" transform="translate(516.77 491.97)"><tspan x="0" y="0" xml:space="preserve"> C</tspan></text>
  <text class="cls-2" transform="translate(542.96 491.97) scale(.7)"><tspan x="0" y="0">ONSULTANTS</tspan></text>
</svg>